<svg width="20" height="20" viewBox="0 0 20 20" fill="none" xmlns="http://www.w3.org/2000/svg">
<g id="ph:shopping-cart-simple-light">
<path id="Vector" d="M7.34375 16.875C7.34375 17.0913 7.2796 17.3028 7.15942 17.4827C7.03924 17.6625 6.86842 17.8027 6.66856 17.8855C6.4687 17.9683 6.24879 17.9899 6.03662 17.9477C5.82445 17.9055 5.62957 17.8014 5.4766 17.6484C5.32364 17.4954 5.21947 17.3005 5.17727 17.0884C5.13506 16.8762 5.15672 16.6563 5.23951 16.4564C5.32229 16.2566 5.46248 16.0858 5.64234 15.9656C5.82221 15.8454 6.03368 15.7812 6.25 15.7812C6.54008 15.7812 6.81828 15.8965 7.0234 16.1016C7.22852 16.3067 7.34375 16.5849 7.34375 16.875ZM14.375 15.7812C14.1587 15.7812 13.9472 15.8454 13.7673 15.9656C13.5875 16.0858 13.4473 16.2566 13.3645 16.4564C13.2817 16.6563 13.2601 16.8762 13.3023 17.0884C13.3445 17.3005 13.4486 17.4954 13.6016 17.6484C13.7546 17.8014 13.9495 17.9055 14.1616 17.9477C14.3738 17.9899 14.5937 17.9683 14.7936 17.8855C14.9934 17.8027 15.1642 17.6625 15.2844 17.4827C15.4046 17.3028 15.4688 17.0913 15.4688 16.875C15.4688 16.5849 15.3535 16.3067 15.1484 16.1016C14.9433 15.8965 14.6651 15.7812 14.375 15.7812ZM17.9477 5.7625L15.7195 13.0055C15.6127 13.3572 15.3955 13.6651 15.1 13.8836C14.8045 14.1021 14.4464 14.2197 14.0789 14.2188H6.56797C6.19426 14.2174 5.83108 14.0948 5.53299 13.8694C5.2349 13.644 5.01799 13.3279 4.91484 12.9688L2.08984 3.08203C2.08048 3.0493 2.06069 3.02052 2.03347 3.00008C2.00625 2.97963 1.9731 2.96863 1.93906 2.96875H0.625C0.50068 2.96875 0.381451 2.91936 0.293544 2.83146C0.205636 2.74355 0.15625 2.62432 0.15625 2.5C0.15625 2.37568 0.205636 2.25645 0.293544 2.16854C0.381451 2.08064 0.50068 2.03125 0.625 2.03125H1.93906C2.17653 2.03189 2.40738 2.10952 2.59699 2.2525C2.78659 2.39548 2.92471 2.59608 2.99062 2.82422L3.65703 5.15625H17.5C17.5733 5.15632 17.6455 5.17358 17.7109 5.20663C17.7763 5.23968 17.8331 5.2876 17.8766 5.34656C17.9201 5.40551 17.9492 5.47385 17.9616 5.54608C17.9739 5.61832 17.9692 5.69244 17.9477 5.7625ZM16.8656 6.09375H3.925L5.81641 12.7148C5.8631 12.8781 5.96172 13.0217 6.09733 13.1239C6.23294 13.2261 6.39816 13.2813 6.56797 13.2812H14.0766C14.2437 13.2813 14.4064 13.2277 14.5408 13.1285C14.6753 13.0292 14.7743 12.8894 14.8234 12.7297L16.8656 6.09375Z" fill="black"/>
</g>
</svg>
