<svg width="30" height="30" viewBox="0 0 30 30" fill="none" xmlns="http://www.w3.org/2000/svg">
<path d="M18.2977 4.57029C18.3288 4.45032 18.4063 4.34758 18.513 4.28455C18.6197 4.22152 18.7471 4.20333 18.8672 4.23396C20.5267 4.6662 22.0409 5.53343 23.2534 6.74615C24.4659 7.95888 25.3329 9.47318 25.7649 11.1328C25.7955 11.2527 25.7775 11.38 25.7147 11.4867C25.6519 11.5934 25.5495 11.6709 25.4297 11.7023C25.3916 11.7132 25.3521 11.7187 25.3125 11.7187C25.2089 11.7184 25.1082 11.6837 25.0264 11.6201C24.9445 11.5565 24.8861 11.4675 24.8602 11.3672C24.4689 9.86959 23.6857 8.50328 22.5912 7.40878C21.4967 6.31428 20.1304 5.53111 18.6328 5.13982C18.5131 5.1084 18.4106 5.03087 18.3478 4.92416C18.285 4.81746 18.267 4.69024 18.2977 4.57029ZM17.6953 8.88982C19.4531 9.36209 20.6379 10.5469 21.1102 12.3047C21.1361 12.405 21.1945 12.494 21.2764 12.5576C21.3582 12.6212 21.4589 12.6559 21.5625 12.6562C21.6021 12.6562 21.6416 12.6507 21.6797 12.6398C21.7996 12.6077 21.9018 12.5293 21.964 12.4219C22.0262 12.3144 22.0432 12.1867 22.0113 12.0668C21.4488 9.9574 20.0367 8.55115 17.9297 7.98396C17.8126 7.96132 17.6913 7.98417 17.5904 8.04786C17.4896 8.11155 17.4168 8.2113 17.3869 8.32677C17.357 8.44225 17.3723 8.56477 17.4296 8.66938C17.4869 8.77399 17.5819 8.85283 17.6953 8.88982ZM26.7117 20.4586C26.5172 21.9339 25.7921 23.2879 24.6719 24.2675C23.5517 25.2471 22.1131 25.7852 20.625 25.7812C11.5781 25.7812 4.21876 18.4219 4.21876 9.37498C4.21568 7.8875 4.75418 6.44975 5.73368 5.33029C6.71318 4.21083 8.0667 3.48621 9.54142 3.29177C9.84354 3.25504 10.1494 3.31732 10.4131 3.46925C10.6768 3.62118 10.8842 3.85456 11.0039 4.13435L13.4766 9.65857C13.569 9.87278 13.6067 10.1066 13.5862 10.339C13.5658 10.5714 13.4878 10.7951 13.3594 10.9898C13.3488 11.0051 13.3383 11.0203 13.3266 11.0344L10.8422 13.9887C10.8032 14.0534 10.7809 14.1267 10.7772 14.2022C10.7735 14.2777 10.7886 14.3529 10.8211 14.4211C11.7399 16.3019 13.7098 18.2566 15.6129 19.1754C15.6816 19.2072 15.7571 19.2217 15.8328 19.2174C15.9084 19.2131 15.9818 19.1902 16.0465 19.1508L18.9609 16.6758L19.0055 16.6418C19.2005 16.5129 19.4246 16.4348 19.6574 16.4143C19.8903 16.3938 20.1246 16.4317 20.3391 16.5246L25.8727 19.0043C26.1497 19.1248 26.3805 19.3313 26.531 19.5932C26.6815 19.8552 26.7436 20.1586 26.7082 20.4586H26.7117ZM25.4988 19.8586L19.9629 17.3789C19.8956 17.3507 19.8226 17.3388 19.7499 17.3443C19.6772 17.3498 19.6068 17.3725 19.5445 17.4105L16.6406 19.8855L16.5973 19.9183C16.3954 20.0532 16.162 20.1334 15.9199 20.1513C15.6778 20.1691 15.4351 20.124 15.2156 20.0203C13.1063 19.0019 11.0074 16.9172 9.98907 14.8324C9.88434 14.6146 9.83751 14.3734 9.85311 14.1322C9.86871 13.8911 9.94621 13.658 10.0781 13.4554C10.0887 13.439 10.1004 13.425 10.1121 13.4097L12.5953 10.4566C12.6325 10.3933 12.6544 10.3222 12.6591 10.2489C12.6637 10.1756 12.6511 10.1023 12.6223 10.0347L10.1449 4.51052C10.11 4.42489 10.0506 4.35149 9.97404 4.29956C9.89751 4.24764 9.80733 4.21952 9.71486 4.21873C9.69612 4.21756 9.67734 4.21756 9.65861 4.21873C8.40969 4.38421 7.26379 4.9989 6.43516 5.94788C5.60653 6.89686 5.1519 8.11515 5.15626 9.37498C5.15626 17.9039 12.0961 24.8437 20.625 24.8437C21.8848 24.8481 23.1031 24.3935 24.0521 23.5648C25.0011 22.7362 25.6158 21.5903 25.7813 20.3414C25.7921 20.2408 25.7701 20.1395 25.7185 20.0525C25.667 19.9655 25.5887 19.8974 25.4953 19.8586H25.4988Z" fill="white"/>
</svg>
